<svg width="132" height="39" viewBox="0 0 132 39" fill="none" xmlns="http://www.w3.org/2000/svg">
<g id="LOOFT Logo">
<path id="Vector" d="M127.219 39H1.00256L5.11957 0H131.336L127.219 39Z" fill="white"/>
<path id="Vector_2" d="M37.0948 23.5562L36.5098 28H26.0667L28.3007 11H32.7155L31.0488 23.5751H37.0948V23.5562Z" fill="#29ABE2"/>
<path id="Vector_3" d="M38.198 19.5C38.9079 14.6559 43.5421 11 48.906 11C54.2698 11 57.78 14.6742 57.0504 19.5C56.3207 24.3258 51.6865 28 46.3227 28C40.9588 28 37.4486 24.3441 38.198 19.5ZM52.0218 19.5C52.3767 17.1419 50.74 15.3871 48.2552 15.3871C45.7705 15.3871 43.6013 17.1602 43.2463 19.5183C42.8914 21.8763 44.5084 23.6495 46.9931 23.6495C49.537 23.5946 51.6865 21.8398 52.0218 19.5Z" fill="#29ABE2"/>
<path id="Vector_4" d="M58.244 19.5C58.9165 14.6559 63.3068 11 68.3884 11C73.4699 11 76.7953 14.6742 76.1041 19.5C75.4129 24.3258 71.0226 28 65.941 28C60.8595 28 57.534 24.3441 58.244 19.5ZM71.3402 19.5C71.6764 17.1419 70.1258 15.3871 67.7532 15.3871C65.3805 15.3871 63.3442 17.1602 63.0079 19.5183C62.6716 21.8763 64.2036 23.6495 66.5575 23.6495C68.9862 23.5946 71.0039 21.8398 71.3402 19.5Z" fill="#29ABE2"/>
<path id="Vector_5" d="M83.8105 15.4249L83.502 17.4294H89.3824L88.7462 21.8543H82.885L81.9981 28H77.1974L79.6267 11H91.2333L90.6163 15.4249H83.8105Z" fill="#29ABE2"/>
<path id="Vector_6" d="M105.646 15.4389H101.302L99.5193 28H94.7964L96.5794 15.4389H92.2358L92.8428 11H106.272L105.646 15.4389Z" fill="#29ABE2"/>
<path id="Vector_7" d="M124.275 39H0L4.05367 0H128.328L124.275 39Z" fill="#29ABE2"/>
<path id="Vector_8" d="M37.0948 23.5562L36.5098 28H26.0667L28.3007 11H32.7155L31.0488 23.5751H37.0948V23.5562Z" fill="white"/>
<path id="Vector_9" d="M38.198 19.5C38.9079 14.6559 43.5421 11 48.906 11C54.2698 11 57.78 14.6742 57.0504 19.5C56.3207 24.3258 51.6865 28 46.3227 28C40.9588 28 37.4486 24.3441 38.198 19.5ZM52.0218 19.5C52.3767 17.1419 50.74 15.3871 48.2552 15.3871C45.7705 15.3871 43.6013 17.1602 43.2463 19.5183C42.8914 21.8763 44.5084 23.6495 46.9931 23.6495C49.537 23.5946 51.6865 21.8398 52.0218 19.5Z" fill="white"/>
<path id="Vector_10" d="M58.244 19.5C58.9165 14.6559 63.3068 11 68.3884 11C73.4699 11 76.7953 14.6742 76.1041 19.5C75.4129 24.3258 71.0226 28 65.941 28C60.8595 28 57.534 24.3441 58.244 19.5ZM71.3402 19.5C71.6764 17.1419 70.1258 15.3871 67.7532 15.3871C65.3805 15.3871 63.3442 17.1602 63.0079 19.5183C62.6716 21.8763 64.2036 23.6495 66.5575 23.6495C68.9862 23.5946 71.0039 21.8398 71.3402 19.5Z" fill="white"/>
<path id="Vector_11" d="M83.8105 15.4249L83.502 17.4294H89.3824L88.7462 21.8543H82.885L81.9981 28H77.1974L79.6267 11H91.2333L90.6163 15.4249H83.8105Z" fill="white"/>
<path id="Vector_12" d="M105.646 15.4389H101.302L99.5193 28H94.7964L96.5794 15.4389H92.2358L92.8428 11H106.272L105.646 15.4389Z" fill="white"/>
</g>
</svg>
