<svg width="16" height="22" viewBox="0 0 16 22" fill="none" xmlns="http://www.w3.org/2000/svg">
<g filter="url(#filter0_d_485_9437)">
<path d="M8.5 4.20711L9.64645 5.35355C9.74021 5.44732 9.86739 5.5 10 5.5C10.1326 5.5 10.2598 5.44732 10.3536 5.35355C10.4473 5.25979 10.5 5.13261 10.5 5C10.5 4.86739 10.4473 4.74021 10.3536 4.64645L8.35355 2.64645C8.25979 2.55268 8.13261 2.5 8 2.5C7.86739 2.5 7.74022 2.55268 7.64645 2.64645L5.64663 4.64626C5.55287 4.74003 5.5 4.86739 5.5 5C5.5 5.13261 5.55268 5.25979 5.64645 5.35355C5.74021 5.44732 5.86739 5.5 6 5.5C6.13261 5.5 6.25979 5.44732 6.35355 5.35355L7.5 4.20711L7.5 13C7.5 13.2761 7.72386 13.5 8 13.5C8.27614 13.5 8.5 13.2761 8.5 13L8.5 4.20711Z" fill="#1C1C1C"/>
</g>
<defs>
<filter id="filter0_d_485_9437" x="-4" y="0" width="24" height="24" filterUnits="userSpaceOnUse" color-interpolation-filters="sRGB">
<feFlood flood-opacity="0" result="BackgroundImageFix"/>
<feColorMatrix in="SourceAlpha" type="matrix" values="0 0 0 0 0 0 0 0 0 0 0 0 0 0 0 0 0 0 127 0" result="hardAlpha"/>
<feOffset dy="4"/>
<feGaussianBlur stdDeviation="2"/>
<feComposite in2="hardAlpha" operator="out"/>
<feColorMatrix type="matrix" values="0 0 0 0 0 0 0 0 0 0 0 0 0 0 0 0 0 0 0.25 0"/>
<feBlend mode="normal" in2="BackgroundImageFix" result="effect1_dropShadow_485_9437"/>
<feBlend mode="normal" in="SourceGraphic" in2="effect1_dropShadow_485_9437" result="shape"/>
</filter>
</defs>
</svg>
