<svg width="16" height="16" viewBox="0 0 16 16" fill="none" xmlns="http://www.w3.org/2000/svg">
<path d="M6.35355 10.6464L7.5 11.7929V3C7.5 2.72386 7.72386 2.5 8 2.5C8.27614 2.5 8.5 2.72386 8.5 3V11.7929L9.64645 10.6464C9.74021 10.5527 9.86739 10.5 10 10.5C10.1326 10.5 10.2598 10.5527 10.3536 10.6464C10.4473 10.7402 10.5 10.8674 10.5 11C10.5 11.1326 10.4471 11.26 10.3534 11.3537L8.35355 13.3536C8.25979 13.4473 8.13261 13.5 8 13.5C7.86739 13.5 7.74021 13.4473 7.64645 13.3536L5.64645 11.3536C5.55268 11.2598 5.5 11.1326 5.5 11C5.5 10.8674 5.55268 10.7402 5.64645 10.6464C5.74021 10.5527 5.86739 10.5 6 10.5C6.13261 10.5 6.25979 10.5527 6.35355 10.6464Z" fill="#1C1C1C"/>
</svg>
