<svg width="20" height="20" viewBox="0 0 20 20" fill="none" xmlns="http://www.w3.org/2000/svg">
<g id="Bell-d">
<path id="Vector" d="M4.39087 8.12508C4.3898 7.38415 4.53537 6.65028 4.81918 5.96584C5.103 5.28137 5.51941 4.65984 6.04431 4.137C6.56937 3.61416 7.19269 3.20034 7.87827 2.91939C8.564 2.63847 9.2984 2.49596 10.0394 2.50008C13.1331 2.52354 15.6096 5.09384 15.6096 8.19538V8.75008C15.6096 11.547 16.1955 13.172 16.7111 14.0626C16.7659 14.1574 16.7949 14.265 16.7949 14.3745C16.795 14.4841 16.7664 14.5917 16.7117 14.6866C16.6571 14.7816 16.5785 14.8605 16.4839 14.9155C16.3892 14.9706 16.2816 14.9997 16.1722 15.0001H3.82843C3.71887 14.9997 3.6113 14.9706 3.51669 14.9155C3.42194 14.8605 3.34335 14.7816 3.28873 14.6866C3.2341 14.5917 3.20541 14.4841 3.20557 14.3745C3.20572 14.265 3.23456 14.1574 3.28934 14.0626C3.80493 13.172 4.39087 11.547 4.39087 8.75008V8.12508Z" fill="white" fill-opacity="0.2"/>
<path id="Vector_2" fill-rule="evenodd" clip-rule="evenodd" d="M3.76587 8.75007V8.12507C3.76587 8.12507 3.76411 6.87864 4.24182 5.72645C4.24182 5.72645 4.71953 4.57425 5.60334 3.69411C5.60334 3.69411 6.48715 2.81397 7.64132 2.34105C7.64132 2.34105 8.7955 1.86814 10.0428 1.87508C10.0428 1.87508 11.311 1.88468 12.4659 2.39135C12.4659 2.39135 13.5771 2.87881 14.4324 3.75745C14.4324 3.75745 15.2845 4.63266 15.7518 5.76121C15.7518 5.76121 16.2346 6.92735 16.2346 8.19538V8.75007C16.2346 8.75007 16.2346 11.992 17.2521 13.7494C17.2521 13.7494 17.4196 14.0396 17.4199 14.374C17.4199 14.374 17.4202 14.7083 17.2535 14.9982C17.2535 14.9982 17.0869 15.288 16.7978 15.4559C16.7978 15.4559 16.5087 15.6239 16.1743 15.6251L3.82837 15.6251C3.82837 15.6251 3.49182 15.6239 3.20271 15.4559C3.20271 15.4559 2.9136 15.288 2.74693 14.9982C2.74693 14.9982 2.58027 14.7083 2.58057 14.374C2.58057 14.374 2.58086 14.0396 2.74804 13.7501C2.74804 13.7501 3.76587 11.992 3.76587 8.75007ZM5.01587 8.75007C5.01587 8.75007 5.01587 12.3277 3.83057 14.3751L16.1699 14.3751C16.1699 14.3751 14.9846 12.3272 14.9846 8.75007V8.19538C14.9846 8.19538 14.9846 6.11659 13.5368 4.6294C13.5368 4.6294 12.0874 3.1406 10.0358 3.12506C10.0358 3.12506 9.03831 3.11951 8.11526 3.49772C8.11526 3.49772 7.19221 3.87593 6.48538 4.57982C6.48538 4.57982 5.77856 5.28372 5.39651 6.20519C5.39651 6.20519 5.01446 7.12666 5.01587 8.12507V8.75007Z" fill="white"/>
<path id="Vector_3" d="M13.125 15.625V15C13.125 14.6548 12.8452 14.375 12.5 14.375C12.1548 14.375 11.875 14.6548 11.875 15V15.625C11.875 16.4016 11.3258 16.9508 11.3258 16.9508C10.7766 17.5 10 17.5 10 17.5C9.22335 17.5 8.67417 16.9508 8.67417 16.9508C8.125 16.4016 8.125 15.625 8.125 15.625V15C8.125 14.6548 7.84518 14.375 7.5 14.375C7.15482 14.375 6.875 14.6548 6.875 15L6.875 15.625C6.875 16.9194 7.79029 17.8347 7.79029 17.8347C8.70558 18.75 10 18.75 10 18.75C11.2944 18.75 12.2097 17.8347 12.2097 17.8347C13.125 16.9194 13.125 15.625 13.125 15.625Z" fill="white"/>
</g>
</svg>
