<svg width="16" height="16" viewBox="0 0 16 16" fill="none" xmlns="http://www.w3.org/2000/svg">
<g id="Broadcast-r">
<g id="Vector">
<path fill-rule="evenodd" clip-rule="evenodd" d="M8.00006 5.49976C8.00006 5.49976 9.03559 5.49976 9.76783 6.23199C9.76783 6.23199 10.5001 6.96422 10.5001 7.99976C10.5001 7.99976 10.5001 9.03529 9.76783 9.76752C9.76783 9.76752 9.03559 10.4998 8.00006 10.4998C8.00006 10.4998 6.96453 10.4998 6.23229 9.76752C6.23229 9.76752 5.50006 9.03529 5.50006 7.99976C5.50006 7.99976 5.50006 6.96422 6.23229 6.23199C6.23229 6.23199 6.96453 5.49976 8.00006 5.49976ZM8.00006 6.49976C8.00006 6.49976 7.37874 6.49976 6.9394 6.9391C6.9394 6.9391 6.50006 7.37844 6.50006 7.99976C6.50006 7.99976 6.50006 8.62108 6.9394 9.06042C6.9394 9.06042 7.37874 9.49976 8.00006 9.49976C8.00006 9.49976 8.62138 9.49976 9.06072 9.06042C9.06072 9.06042 9.50006 8.62108 9.50006 7.99976C9.50006 7.99976 9.50006 7.37844 9.06072 6.9391C9.06072 6.9391 8.62138 6.49976 8.00006 6.49976Z" fill="#1C1C1C"/>
<path d="M5.17217 5.17223C5.26593 5.07846 5.31881 4.95109 5.31881 4.81848C5.31881 4.68597 5.2662 4.55888 5.17256 4.46512C5.07879 4.37136 4.95142 4.31848 4.81881 4.31848C4.68629 4.31848 4.5592 4.37108 4.46545 4.46473C3.77418 5.15524 3.39541 6.0559 3.39541 6.0559C2.99994 6.98663 2.99994 7.99973 2.99994 7.99973C2.99994 9.01284 3.39613 9.94526 3.39613 9.94526C3.77418 10.8442 4.46545 11.5347 4.46545 11.5347C4.5592 11.6284 4.6863 11.681 4.81881 11.681C4.95142 11.6809 5.07884 11.6282 5.17256 11.5343C5.2662 11.4406 5.31881 11.3135 5.31881 11.181C5.31873 11.0484 5.26599 10.9209 5.17217 10.8272C4.61984 10.2755 4.31649 9.5542 4.31649 9.5542C3.99994 8.8092 3.99994 7.99973 3.99994 7.99973C3.99994 7.19027 4.31721 6.44356 4.31721 6.44356C4.61985 5.72394 5.17217 5.17223 5.17217 5.17223Z" fill="#1C1C1C"/>
<path d="M11.5349 4.46493C12.226 5.15537 12.604 6.0542 12.604 6.0542C13.0002 6.98663 13.0002 7.99973 13.0002 7.99973C13.0002 9.01284 12.6047 9.94356 12.6047 9.94356C12.2259 10.8442 11.5347 11.5347 11.5347 11.5347C11.4472 11.6221 11.3304 11.674 11.2069 11.6803C11.1984 11.6808 11.1898 11.681 11.1813 11.681C11.0486 11.681 10.9213 11.6282 10.8276 11.5343C10.7397 11.4464 10.6878 11.3289 10.6819 11.2047C10.6815 11.1968 10.6813 11.1889 10.6813 11.181C10.6814 11.0484 10.7341 10.9209 10.8279 10.8272C11.3803 10.2755 11.6829 9.5559 11.6829 9.5559C12.0002 8.8092 12.0002 7.99973 12.0002 7.99973C12.0002 7.19026 11.6836 6.44526 11.6836 6.44526C11.3803 5.72394 10.8279 5.17223 10.8279 5.17223C10.7341 5.07845 10.6813 4.95119 10.6813 4.81848C10.6813 4.68699 10.7331 4.5608 10.8255 4.46722L10.8276 4.46512C10.9104 4.38222 11.0197 4.33103 11.1364 4.3205C11.1512 4.31916 11.1661 4.31849 11.181 4.31848C11.3114 4.31848 11.4369 4.3694 11.5303 4.46038L11.5349 4.46493Z" fill="#1C1C1C"/>
<path d="M3.4036 3.40336L3.40588 3.40106C3.49825 3.30749 3.55005 3.18129 3.55005 3.0498C3.55005 2.91704 3.49724 2.78972 3.40328 2.69593L3.399 2.6917C3.30563 2.60072 3.18042 2.5498 3.05005 2.5498C3.0352 2.54982 3.01991 2.55049 3.00512 2.55183C2.88835 2.56236 2.779 2.6136 2.69617 2.69658C1.66247 3.73227 1.08988 5.07924 1.08988 5.07924C0.5 6.48086 0.5 7.9998 0.5 7.9998C0.5 9.51875 1.0892 10.9188 1.0892 10.9188C1.66229 12.2673 2.69617 13.303 2.69617 13.303C2.78985 13.3969 2.91698 13.4497 3.04959 13.4498C3.05744 13.4498 3.06576 13.4496 3.07361 13.4492C3.19777 13.4434 3.3153 13.3915 3.40328 13.3037C3.49724 13.2099 3.55005 13.0826 3.55005 12.9498C3.55005 12.9413 3.54983 12.9329 3.5494 12.9244C3.54312 12.8009 3.49129 12.6841 3.40393 12.5966C2.50687 11.6979 2.0109 10.5309 2.0109 10.5309C1.5 9.31689 1.5 7.9998 1.5 7.9998C1.5 6.68272 2.01022 5.47037 2.01022 5.47037C2.50678 4.30195 3.4036 3.40336 3.4036 3.40336Z" fill="#1C1C1C"/>
<path d="M13.3043 2.69688L13.3036 2.69625C13.21 2.6026 13.083 2.54993 12.9505 2.5498C12.8181 2.5498 12.6906 2.60236 12.5968 2.69593C12.5031 2.78969 12.4501 2.9172 12.4501 3.0498C12.4501 3.18225 12.5026 3.30929 12.5962 3.40303C13.4932 4.30174 13.9892 5.46875 13.9892 5.46875C14.5001 6.68272 14.5001 7.9998 14.5001 7.9998C14.5001 9.31689 13.9899 10.5292 13.9899 10.5292C13.4932 11.6979 12.5962 12.5966 12.5962 12.5966C12.5026 12.6903 12.4501 12.8174 12.4501 12.9498C12.4502 13.0824 12.503 13.21 12.5968 13.3037C12.6906 13.3973 12.8176 13.4498 12.9501 13.4498C13.0827 13.4497 13.2103 13.3969 13.304 13.303C14.3378 12.2673 14.9102 10.9204 14.9102 10.9204C15.5001 9.51874 15.5001 7.9998 15.5001 7.9998C15.5001 6.48087 14.9109 5.08085 14.9109 5.08085C14.3379 3.73255 13.3043 2.69688 13.3043 2.69688Z" fill="#1C1C1C"/>
</g>
</g>
</svg>
