<svg width="20" height="20" viewBox="0 0 20 20" fill="none" xmlns="http://www.w3.org/2000/svg">
<g id="Keyhole-r">
<g id="Vector">
<path fill-rule="evenodd" clip-rule="evenodd" d="M10 1.875C10 1.875 11.6526 1.875 13.1628 2.51376C13.1628 2.51376 14.621 3.13053 15.7452 4.25476C15.7452 4.25476 16.8695 5.37899 17.4862 6.83719C17.4862 6.83719 18.125 8.34739 18.125 10C18.125 10 18.125 11.6526 17.4862 13.1628C17.4862 13.1628 16.8695 14.621 15.7452 15.7452C15.7452 15.7452 14.621 16.8695 13.1628 17.4862C13.1628 17.4862 11.6526 18.125 10 18.125C10 18.125 8.34739 18.125 6.83719 17.4862C6.83719 17.4862 5.37899 16.8695 4.25476 15.7452C4.25476 15.7452 3.13053 14.621 2.51376 13.1628C2.51376 13.1628 1.875 11.6526 1.875 10C1.875 10 1.875 8.34739 2.51376 6.83719C2.51376 6.83719 3.13053 5.37899 4.25476 4.25476C4.25476 4.25476 5.37899 3.13053 6.83719 2.51376C6.83719 2.51376 8.34739 1.875 10 1.875ZM10 3.125C10 3.125 8.60087 3.125 7.32413 3.66501C7.32413 3.66501 6.09047 4.18681 5.13864 5.13864C5.13864 5.13864 4.18681 6.09047 3.66502 7.32413C3.66502 7.32413 3.125 8.60087 3.125 10C3.125 10 3.125 11.3991 3.66502 12.6759C3.66502 12.6759 4.18681 13.9095 5.13864 14.8614C5.13864 14.8614 6.09047 15.8132 7.32413 16.335C7.32413 16.335 8.60087 16.875 10 16.875C10 16.875 11.3991 16.875 12.6759 16.335C12.6759 16.335 13.9095 15.8132 14.8614 14.8614C14.8614 14.8614 15.8132 13.9095 16.335 12.6759C16.335 12.6759 16.875 11.3991 16.875 10C16.875 10 16.875 8.60087 16.335 7.32413C16.335 7.32413 15.8132 6.09047 14.8614 5.13864C14.8614 5.13864 13.9095 4.18681 12.6759 3.66501C12.6759 3.66501 11.3991 3.125 10 3.125Z" fill="#1C1C1C"/>
<path fill-rule="evenodd" clip-rule="evenodd" d="M12.6987 12.6271L12.6994 12.6287C12.6994 12.6287 12.8238 12.9162 12.7978 13.2286C12.7978 13.2286 12.7717 13.5431 12.5993 13.8075C12.5993 13.8075 12.427 14.0718 12.1499 14.2228C12.1499 14.2228 11.8727 14.3737 11.5547 14.3749L8.44277 14.3749C8.44277 14.3749 8.1272 14.3737 7.85005 14.2228C7.85005 14.2228 7.5729 14.0718 7.40058 13.8075C7.40058 13.8075 7.22827 13.5431 7.20209 13.2286C7.20209 13.2286 7.17591 12.9141 7.3005 12.6287L8.17672 10.5842C8.17672 10.5842 7.68868 10.1747 7.42183 9.56256C7.42183 9.56256 7.03643 8.67857 7.27456 7.74407C7.27456 7.74407 7.51269 6.80957 8.27415 6.21782C8.27415 6.21782 9.0356 5.62607 9.99996 5.62607C9.99996 5.62607 10.9643 5.62607 11.7258 6.21782C11.7258 6.21782 12.4872 6.80958 12.7254 7.74407C12.7254 7.74407 12.9635 8.67857 12.5781 9.56256C12.5781 9.56256 12.3112 10.1747 11.8232 10.5842L12.6987 12.6271ZM11.5505 13.1211L10.4724 10.6055C10.3454 10.3091 10.4646 9.96482 10.7477 9.81052C10.7477 9.81052 11.2181 9.55412 11.4323 9.06301C11.4323 9.06301 11.6464 8.5719 11.5141 8.05273C11.5141 8.05273 11.3818 7.53357 10.9587 7.20482C10.9587 7.20482 10.5357 6.87607 9.99996 6.87607C9.99996 6.87607 9.46421 6.87607 9.04118 7.20482C9.04118 7.20482 8.61814 7.53357 8.48585 8.05274C8.48585 8.05274 8.35355 8.5719 8.56766 9.06301C8.56766 9.06301 8.78178 9.55412 9.25219 9.81052C9.53529 9.96482 9.65456 10.3091 9.52755 10.6055L8.44943 13.1211L8.44778 13.1249L11.5521 13.1249L11.5505 13.1211Z" fill="#1C1C1C"/>
</g>
</g>
</svg>
