<svg width="20" height="20" viewBox="0 0 20 20" fill="none" xmlns="http://www.w3.org/2000/svg">
<g id="User-r">
<g id="Vector">
<path fill-rule="evenodd" clip-rule="evenodd" d="M10 1.875C10 1.875 11.144 1.875 12.1897 2.3173C12.1897 2.3173 13.1993 2.74431 13.9775 3.52252C13.9775 3.52252 14.7557 4.30075 15.1827 5.3103C15.1827 5.3103 15.625 6.35601 15.625 7.5C15.625 7.5 15.625 8.64399 15.1827 9.6897C15.1827 9.6897 14.7557 10.6993 13.9775 11.4775C13.9775 11.4775 13.1993 12.2557 12.1897 12.6827C12.1897 12.6827 11.144 13.125 10 13.125C10 13.125 8.85601 13.125 7.8103 12.6827C7.8103 12.6827 6.80075 12.2557 6.02252 11.4775C6.02252 11.4775 5.24431 10.6993 4.8173 9.6897C4.8173 9.6897 4.375 8.64399 4.375 7.5C4.375 7.5 4.375 6.35601 4.8173 5.3103C4.8173 5.3103 5.24431 4.30074 6.02252 3.52252C6.02252 3.52252 6.80074 2.7443 7.8103 2.3173C7.8103 2.3173 8.85601 1.875 10 1.875ZM10 3.125C10 3.125 8.18782 3.125 6.90641 4.40641C6.90641 4.40641 5.625 5.68781 5.625 7.5C5.625 7.5 5.625 9.31219 6.90641 10.5936C6.90641 10.5936 8.18782 11.875 10 11.875C10 11.875 11.8122 11.875 13.0936 10.5936C13.0936 10.5936 14.375 9.31219 14.375 7.5C14.375 7.5 14.375 5.68782 13.0936 4.40641C13.0936 4.40641 11.8122 3.125 10 3.125Z" fill="#1C1C1C"/>
<path d="M14.0628 14.213C15.9484 15.3018 17.0368 17.1875 17.0368 17.1875C17.1197 17.331 17.2562 17.4358 17.4163 17.4787C17.4691 17.4928 17.5235 17.5 17.5781 17.5C17.5847 17.5 17.5912 17.4999 17.5978 17.4997C17.7008 17.4965 17.8013 17.4678 17.8906 17.4163C18.084 17.3047 18.2031 17.0983 18.2031 16.875C18.2031 16.8654 18.2029 16.8557 18.2025 16.8461C18.1978 16.7463 18.1694 16.6491 18.1194 16.5626C16.8635 14.3868 14.6879 13.1305 14.6879 13.1305C12.5123 11.8743 10 11.8743 10 11.8743C7.48775 11.8743 5.31213 13.1305 5.31213 13.1305C3.13668 14.3867 1.88078 16.5622 1.88078 16.5622C1.82594 16.6572 1.79688 16.7653 1.79688 16.875L1.79698 16.8863C1.7979 16.9372 1.80502 16.9877 1.81819 17.0368C1.8611 17.1969 1.96586 17.3334 2.10942 17.4163C2.20443 17.4711 2.31218 17.5 2.42188 17.5C2.43344 17.5 2.44501 17.4997 2.45656 17.499C2.66719 17.4873 2.85771 17.3702 2.96317 17.1875C4.05164 15.3018 5.93718 14.213 5.93718 14.213C7.82271 13.1243 10 13.1243 10 13.1243C12.1773 13.1243 14.0628 14.213 14.0628 14.213Z" fill="#1C1C1C"/>
</g>
</g>
</svg>
