<svg width="34" height="34" viewBox="0 0 34 34" fill="none" xmlns="http://www.w3.org/2000/svg">
<path d="M29.8333 0.5H4.16667C2.15 0.5 0.5 2.15 0.5 4.16667V29.8333C0.5 31.85 2.15 33.5 4.16667 33.5H29.8333C31.85 33.5 33.5 31.85 33.5 29.8333V4.16667C33.5 2.15 31.85 0.5 29.8333 0.5ZM15.8633 11.28L18.2283 13.645L23.655 8.21833C24.37 7.50333 25.525 7.50333 26.24 8.21833C26.955 8.93333 26.955 10.0883 26.24 10.8033L19.5117 17.5317C18.7967 18.2467 17.6417 18.2467 16.9267 17.5317L14.5617 15.1667L10.345 19.3833C9.63 20.0983 8.475 20.0983 7.76 19.3833C7.045 18.6683 7.045 17.5133 7.76 16.7983L13.26 11.2983C13.975 10.5467 15.13 10.5467 15.8633 11.28ZM4.16667 24.3333H7.32L4.16667 27.4867V24.3333ZM5.70667 29.8333L11.2067 24.3333H14.5617L9.06167 29.8333H5.70667ZM12.9667 29.8333L18.4667 24.3333H21.4367L15.9367 29.8333H12.9667ZM19.805 29.8333L25.305 24.3333H28.275L22.775 29.8333H19.805ZM29.8333 29.8333H26.6617L29.8333 26.6617V29.8333Z" fill="#1C1C1C"/>
</svg>
