<svg width="40" height="38" viewBox="0 0 40 38" fill="none" xmlns="http://www.w3.org/2000/svg">
<path d="M34.4535 29.9276C35.3335 28.5159 35.8285 26.8659 35.7185 25.0509C35.4801 21.1092 32.3451 17.7726 28.4401 17.3509C23.4535 16.8009 19.2368 20.6692 19.2368 25.5459C19.2368 30.1109 22.9218 33.7959 27.4685 33.7959C29.0818 33.7959 30.5851 33.3192 31.8501 32.5126L36.2685 36.9309C36.9835 37.6459 38.1568 37.6459 38.8718 36.9309C39.5868 36.2159 39.5868 35.0426 38.8718 34.3276L34.4535 29.9276ZM27.4868 30.1292C24.9568 30.1292 22.9035 28.0759 22.9035 25.5459C22.9035 23.0159 24.9568 20.9626 27.4868 20.9626C30.0168 20.9626 32.0701 23.0159 32.0701 25.5459C32.0701 28.0759 30.0168 30.1292 27.4868 30.1292ZM26.8268 14.5459C25.4701 14.5826 24.1685 14.8759 22.9768 15.3709L21.9685 13.8492L16.3218 23.0342C15.6618 24.0976 14.1768 24.2076 13.3701 23.2726L9.48348 18.7442L3.87348 27.7276C3.30514 28.6259 2.09514 28.8642 1.23348 28.2409C0.463475 27.6726 0.243475 26.6092 0.756808 25.7842L7.68681 14.6926C8.34681 13.6476 9.83181 13.5376 10.6385 14.4726L14.5068 18.9826L20.3368 9.50423C21.0335 8.36756 22.6835 8.3309 23.4168 9.44923L26.8268 14.5459ZM31.5751 15.4626C30.4018 14.9492 29.1368 14.6376 27.8168 14.5642L36.1401 1.38256C36.7085 0.484229 37.9185 0.264229 38.7618 0.887562C39.5501 1.4559 39.7518 2.53756 39.2385 3.34423L31.5751 15.4626Z" fill="black"/>
</svg>
