<svg width="38" height="38" viewBox="0 0 38 38" fill="none" xmlns="http://www.w3.org/2000/svg">
<path d="M19 0.666504C8.88002 0.666504 0.666687 8.87984 0.666687 18.9998C0.666687 29.1198 8.88002 37.3332 19 37.3332C29.12 37.3332 37.3334 29.1198 37.3334 18.9998C37.3334 8.87984 29.12 0.666504 19 0.666504ZM19 33.6665C10.915 33.6665 4.33335 27.0848 4.33335 18.9998C4.33335 10.9148 10.915 4.33317 19 4.33317C27.085 4.33317 33.6667 10.9148 33.6667 18.9998C33.6667 27.0848 27.085 33.6665 19 33.6665Z" fill="#1C1C1C"/>
<path d="M11.6667 26.3332C13.6917 26.3332 15.3334 24.6915 15.3334 22.6665C15.3334 20.6415 13.6917 18.9998 11.6667 18.9998C9.64164 18.9998 8.00002 20.6415 8.00002 22.6665C8.00002 24.6915 9.64164 26.3332 11.6667 26.3332Z" fill="#1C1C1C"/>
<path d="M19 15.3332C21.0251 15.3332 22.6667 13.6915 22.6667 11.6665C22.6667 9.64146 21.0251 7.99984 19 7.99984C16.975 7.99984 15.3334 9.64146 15.3334 11.6665C15.3334 13.6915 16.975 15.3332 19 15.3332Z" fill="#1C1C1C"/>
<path d="M26.3334 26.3332C28.3584 26.3332 30 24.6915 30 22.6665C30 20.6415 28.3584 18.9998 26.3334 18.9998C24.3083 18.9998 22.6667 20.6415 22.6667 22.6665C22.6667 24.6915 24.3083 26.3332 26.3334 26.3332Z" fill="#1C1C1C"/>
</svg>
