<svg width="24" height="24" viewBox="0 0 24 24" fill="none" xmlns="http://www.w3.org/2000/svg">
<g id="Google">
<g id="Google_2">
<g id="super-g">
<path id="Shape" d="M12.0002 5.86667C13.878 5.86667 15.1447 6.67778 15.8669 7.35556L18.6891 4.6C16.9558 2.98889 14.7002 2 12.0002 2C8.08912 2 4.71134 4.24445 3.06689 7.51111L6.30023 10.0222C7.11134 7.61111 9.35579 5.86667 12.0002 5.86667Z" fill="#EA4335"/>
<path id="Shape_2" d="M21.6 12.2222C21.6 11.4 21.5333 10.8 21.3889 10.1777H12V13.8888H17.5111C17.4 14.8111 16.8 16.2 15.4667 17.1333L18.6222 19.5777C20.5111 17.8333 21.6 15.2666 21.6 12.2222Z" fill="#4285F4"/>
<path id="Shape_3" d="M6.31111 13.9778C6.1 13.3556 5.97778 12.6889 5.97778 12C5.97778 11.3111 6.1 10.6444 6.3 10.0222L3.06667 7.51111C2.38889 8.86666 2 10.3889 2 12C2 13.6111 2.38889 15.1333 3.06667 16.4889L6.31111 13.9778Z" fill="#FBBC05"/>
<path id="Shape_4" d="M11.9999 22C14.6999 22 16.9665 21.1111 18.6221 19.5778L15.4665 17.1333C14.6221 17.7222 13.4888 18.1333 11.9999 18.1333C9.35542 18.1333 7.11097 16.3889 6.31097 13.9778L3.07764 16.4889C4.72208 19.7556 8.08875 22 11.9999 22Z" fill="#34A853"/>
</g>
</g>
</g>
</svg>
