<svg width="127" height="141" viewBox="0 0 127 141" fill="none" xmlns="http://www.w3.org/2000/svg">
<path d="M98.2918 56.5833V42.6667C98.2918 23.4518 82.7151 7.875 63.5002 7.875C44.2853 7.875 28.7085 23.4518 28.7085 42.6667V56.5833M63.5002 87.8958V101.813M41.2335 133.125H85.7668C97.4579 133.125 103.303 133.125 107.769 130.85C111.697 128.848 114.89 125.655 116.892 121.727C119.167 117.262 119.167 111.416 119.167 99.725V89.9833C119.167 78.2922 119.167 72.4467 116.892 67.9813C114.89 64.0534 111.697 60.8599 107.769 58.8586C103.303 56.5833 97.4579 56.5833 85.7668 56.5833H41.2335C29.5424 56.5833 23.6969 56.5833 19.2314 58.8586C15.3036 60.8599 12.1101 64.0534 10.1087 67.9813C7.8335 72.4467 7.8335 78.2922 7.8335 89.9833V99.725C7.8335 111.416 7.8335 117.262 10.1087 121.727C12.1101 125.655 15.3036 128.848 19.2314 130.85C23.6969 133.125 29.5424 133.125 41.2335 133.125Z" stroke="#4F4F4F" stroke-width="15" stroke-linecap="round" stroke-linejoin="round"/>
</svg>
