<svg width="34" height="34" viewBox="0 0 34 34" fill="none" xmlns="http://www.w3.org/2000/svg">
<path d="M24.3333 26.1667C25.3417 26.1667 26.1667 25.3417 26.1667 24.3333V20.6667C26.1667 19.6583 25.3417 18.8333 24.3333 18.8333C23.325 18.8333 22.5 19.6583 22.5 20.6667V24.3333C22.5 25.3417 23.325 26.1667 24.3333 26.1667Z" fill="#1C1C1C"/>
<path d="M31.6667 13.3333C30.6583 13.3333 29.8333 14.1583 29.8333 15.1667V29.8333H4.16667V4.16667H18.8333C19.8417 4.16667 20.6667 3.34167 20.6667 2.33333C20.6667 1.325 19.8417 0.5 18.8333 0.5H4.16667C2.15 0.5 0.5 2.15 0.5 4.16667V29.8333C0.5 31.85 2.15 33.5 4.16667 33.5H29.8333C31.85 33.5 33.5 31.85 33.5 29.8333V15.1667C33.5 14.1583 32.675 13.3333 31.6667 13.3333Z" fill="#1C1C1C"/>
<path d="M7.83333 15.1667V24.3333C7.83333 25.3417 8.65833 26.1667 9.66667 26.1667C10.675 26.1667 11.5 25.3417 11.5 24.3333V15.1667C11.5 14.1583 10.675 13.3333 9.66667 13.3333C8.65833 13.3333 7.83333 14.1583 7.83333 15.1667Z" fill="#1C1C1C"/>
<path d="M15.1667 9.66667V24.3333C15.1667 25.3417 15.9917 26.1667 17 26.1667C18.0083 26.1667 18.8333 25.3417 18.8333 24.3333V9.66667C18.8333 8.65833 18.0083 7.83333 17 7.83333C15.9917 7.83333 15.1667 8.65833 15.1667 9.66667Z" fill="#1C1C1C"/>
<path d="M24.3333 7.83333H26.1667V9.66667C26.1667 10.675 26.9917 11.5 28 11.5C29.0083 11.5 29.8333 10.675 29.8333 9.66667V7.83333H31.6667C32.675 7.83333 33.5 7.00833 33.5 6C33.5 4.99167 32.675 4.16667 31.6667 4.16667H29.8333V2.33333C29.8333 1.325 29.0083 0.5 28 0.5C26.9917 0.5 26.1667 1.325 26.1667 2.33333V4.16667H24.3333C23.325 4.16667 22.5 4.99167 22.5 6C22.5 7.00833 23.325 7.83333 24.3333 7.83333Z" fill="#1C1C1C"/>
</svg>
