<svg width="38" height="26" viewBox="0 0 38 26" fill="none" xmlns="http://www.w3.org/2000/svg">
<path d="M20.8333 7.49984H2.49996C1.49163 7.49984 0.666626 8.32484 0.666626 9.33317C0.666626 10.3415 1.49163 11.1665 2.49996 11.1665H20.8333C21.8416 11.1665 22.6666 10.3415 22.6666 9.33317C22.6666 8.32484 21.8416 7.49984 20.8333 7.49984ZM20.8333 0.166504H2.49996C1.49163 0.166504 0.666626 0.991504 0.666626 1.99984C0.666626 3.00817 1.49163 3.83317 2.49996 3.83317H20.8333C21.8416 3.83317 22.6666 3.00817 22.6666 1.99984C22.6666 0.991504 21.8416 0.166504 20.8333 0.166504ZM30 14.8332V9.33317C30 8.32484 29.175 7.49984 28.1666 7.49984C27.1583 7.49984 26.3333 8.32484 26.3333 9.33317V14.8332H20.8333C19.825 14.8332 19 15.6582 19 16.6665C19 17.6748 19.825 18.4998 20.8333 18.4998H26.3333V23.9998C26.3333 25.0082 27.1583 25.8332 28.1666 25.8332C29.175 25.8332 30 25.0082 30 23.9998V18.4998H35.5C36.5083 18.4998 37.3333 17.6748 37.3333 16.6665C37.3333 15.6582 36.5083 14.8332 35.5 14.8332H30ZM2.49996 18.4998H13.5C14.5083 18.4998 15.3333 17.6748 15.3333 16.6665C15.3333 15.6582 14.5083 14.8332 13.5 14.8332H2.49996C1.49163 14.8332 0.666626 15.6582 0.666626 16.6665C0.666626 17.6748 1.49163 18.4998 2.49996 18.4998Z" fill="#1C1C1C"/>
</svg>
