<svg width="34" height="34" viewBox="0 0 34 34" fill="none" xmlns="http://www.w3.org/2000/svg">
<path d="M31.6667 4.16667V2.33333C31.6667 1.325 30.8417 0.5 29.8333 0.5H26.1667C25.1583 0.5 24.3333 1.325 24.3333 2.33333V4.16667C23.325 4.16667 22.5 4.99167 22.5 6V11.5C22.5 12.5083 23.325 13.3333 24.3333 13.3333H26.1667V26.0017C26.1667 27.9083 24.7733 29.6317 22.885 29.815C20.685 30.035 18.8333 28.3117 18.8333 26.1667V8.09C18.8333 4.185 15.8817 0.775 11.9767 0.518333C7.705 0.243333 4.16667 3.61667 4.16667 7.83333V20.6667H2.33333C1.325 20.6667 0.5 21.4917 0.5 22.5V28C0.5 29.0083 1.325 29.8333 2.33333 29.8333V31.6667C2.33333 32.675 3.15833 33.5 4.16667 33.5H7.83333C8.84167 33.5 9.66667 32.675 9.66667 31.6667V29.8333C10.675 29.8333 11.5 29.0083 11.5 28V22.5C11.5 21.4917 10.675 20.6667 9.66667 20.6667H7.83333V7.99833C7.83333 6.09167 9.22667 4.36833 11.115 4.185C13.315 3.965 15.1667 5.68833 15.1667 7.83333V25.91C15.1667 29.815 18.1183 33.225 22.0233 33.4817C26.295 33.7567 29.8333 30.3833 29.8333 26.1667V13.3333H31.6667C32.675 13.3333 33.5 12.5083 33.5 11.5V6C33.5 4.99167 32.675 4.16667 31.6667 4.16667Z" fill="#1C1C1C"/>
</svg>
