<svg width="20" height="20" viewBox="0 0 20 20" fill="none" xmlns="http://www.w3.org/2000/svg">
<g id="Rightbar-s">
<path id="Vector" d="M13.75 16.25C13.5842 16.25 13.4253 16.1842 13.308 16.067C13.1908 15.9497 13.125 15.7908 13.125 15.625V4.375C13.125 4.20921 13.1908 4.05029 13.308 3.93303C13.4253 3.81584 13.5842 3.75 13.75 3.75H17.5V16.25H13.75Z" fill="white" fill-opacity="0.2"/>
<path id="Vector_2" d="M12.5 3.75V16.25C12.5 16.5952 12.7798 16.875 13.125 16.875C13.4702 16.875 13.75 16.5952 13.75 16.25V3.75C13.75 3.40482 13.4702 3.125 13.125 3.125C12.7798 3.125 12.5 3.40482 12.5 3.75Z" fill="white"/>
<path id="Vector_3" fill-rule="evenodd" clip-rule="evenodd" d="M1.875 4.375C1.875 4.375 1.875 3.85723 2.24112 3.49112C2.24112 3.49112 2.60723 3.125 3.125 3.125H16.875C16.875 3.125 17.3928 3.125 17.7589 3.49112C17.7589 3.49112 18.125 3.85723 18.125 4.375V15.625C18.125 15.625 18.125 16.1428 17.7589 16.5089C17.7589 16.5089 17.3928 16.875 16.875 16.875H3.125C3.125 16.875 2.60723 16.875 2.24112 16.5089C2.24112 16.5089 1.875 16.1428 1.875 15.625V4.375ZM3.125 4.375V15.625H16.875V4.375H3.125Z" fill="white"/>
<path id="Vector_4" d="M15.625 6.875H17.5C17.8452 6.875 18.125 6.59518 18.125 6.25C18.125 5.90482 17.8452 5.625 17.5 5.625H15.625C15.2798 5.625 15 5.90482 15 6.25C15 6.59518 15.2798 6.875 15.625 6.875Z" fill="white"/>
<path id="Vector_5" d="M15.625 9.375H17.5C17.8452 9.375 18.125 9.09518 18.125 8.75C18.125 8.40482 17.8452 8.125 17.5 8.125H15.625C15.2798 8.125 15 8.40482 15 8.75C15 9.09518 15.2798 9.375 15.625 9.375Z" fill="white"/>
<path id="Vector_6" d="M15.625 11.875H17.5C17.8452 11.875 18.125 11.5952 18.125 11.25C18.125 10.9048 17.8452 10.625 17.5 10.625H15.625C15.2798 10.625 15 10.9048 15 11.25C15 11.5952 15.2798 11.875 15.625 11.875Z" fill="white"/>
</g>
</svg>
