<svg width="16" height="16" viewBox="0 0 16 16" fill="none" xmlns="http://www.w3.org/2000/svg">
<g id="Search-s">
<path id="Vector" d="M14.3496 14.3563C14.2563 14.4483 14.1306 14.4999 13.9996 14.5001C13.8668 14.4995 13.7393 14.4481 13.6434 14.3563L10.9434 11.6501C9.80622 12.6052 8.34425 13.0845 6.86236 12.9879C5.38046 12.8913 3.99306 12.2264 2.98951 11.1317C1.98596 10.0371 1.44375 8.59729 1.47597 7.1126C1.50818 5.62791 2.11233 4.21298 3.16241 3.1629C4.21249 2.11282 5.62743 1.50867 7.11212 1.47645C8.59681 1.44424 10.0366 1.98645 11.1313 2.99C12.2259 3.99355 12.8908 5.38095 12.9874 6.86285C13.084 8.34474 12.6047 9.80671 11.6496 10.9438L14.3496 13.6438C14.3969 13.6904 14.4344 13.7458 14.46 13.807C14.4856 13.8681 14.4988 13.9338 14.4988 14.0001C14.4988 14.0664 14.4856 14.132 14.46 14.1932C14.4344 14.2544 14.3969 14.3098 14.3496 14.3563ZM7.24961 12.0001C8.18907 12.0001 9.10743 11.7215 9.88857 11.1996C10.6697 10.6776 11.2785 9.93579 11.638 9.06784C11.9976 8.19989 12.0916 7.24483 11.9083 6.32342C11.7251 5.40201 11.2727 4.55564 10.6084 3.89134C9.94407 3.22704 9.0977 2.77465 8.17629 2.59137C7.25488 2.40809 6.29981 2.50215 5.43186 2.86167C4.56391 3.22119 3.82206 3.83001 3.30013 4.61114C2.77819 5.39227 2.49961 6.31064 2.49961 7.2501C2.50126 8.50937 3.00224 9.71659 3.89268 10.607C4.78312 11.4975 5.99034 11.9984 7.24961 12.0001Z" fill="white" fill-opacity="0.2"/>
</g>
</svg>
