<svg width="20" height="20" viewBox="0 0 20 20" fill="none" xmlns="http://www.w3.org/2000/svg">
<g id="Star-d">
<path id="Vector" d="M10.3439 14.8985L14.2814 17.3985C14.7892 17.7188 15.4142 17.2422 15.2658 16.6563L14.1251 12.1719C14.0943 12.0476 14.0992 11.9171 14.1393 11.7955C14.1794 11.6739 14.253 11.566 14.3517 11.4844L17.883 8.53909C18.3439 8.15628 18.1095 7.38285 17.5079 7.34379L12.8985 7.04689C12.7728 7.03957 12.6519 6.99577 12.5506 6.92085C12.4493 6.84593 12.372 6.74313 12.3282 6.62502L10.6095 2.29691C10.564 2.17182 10.4811 2.06379 10.3721 1.98742C10.2631 1.91109 10.1332 1.87012 10.0001 1.87012C9.86699 1.87012 9.73714 1.91109 9.62811 1.98742C9.51909 2.06379 9.43623 2.17182 9.39076 2.29691L7.67201 6.62502C7.62822 6.74313 7.55093 6.84593 7.44962 6.92085C7.34837 6.99577 7.22745 7.03957 7.10172 7.04689L2.49234 7.34379C1.89076 7.38285 1.65639 8.15628 2.11728 8.53909L5.64854 11.4844C5.74727 11.566 5.82089 11.6739 5.86095 11.7955C5.90108 11.9171 5.90596 12.0476 5.87514 12.1719L4.82045 16.3282C4.64078 17.0313 5.39075 17.6016 5.99232 17.2188L9.65634 14.8985C9.75911 14.8331 9.87836 14.7984 10.0001 14.7984C10.1219 14.7984 10.2411 14.8331 10.3439 14.8985Z" fill="white" fill-opacity="0.2"/>
<path id="Vector_2" fill-rule="evenodd" clip-rule="evenodd" d="M10.0084 15.4259C10.0084 15.4259 10.0046 15.4234 10.0001 15.4234C10.0001 15.4234 9.99551 15.4234 9.99167 15.4259L6.32662 17.7468C6.32662 17.7468 5.93675 17.9949 5.48655 17.9635C5.48655 17.9635 5.07226 17.9345 4.73511 17.6782C4.73511 17.6782 4.40217 17.4252 4.25729 17.0357C4.25729 17.0357 4.1015 16.6169 4.21483 16.1734L5.26925 12.0182C5.26925 12.0182 5.27225 12.0061 5.26731 11.9911C5.26731 11.9911 5.26237 11.9761 5.25022 11.9661L1.71692 9.01905C1.71692 9.01905 1.39728 8.75358 1.29241 8.35554C1.29241 8.35554 1.19657 7.99177 1.30925 7.62772C1.30925 7.62772 1.42319 7.25961 1.71159 7.01584C1.71159 7.01584 2.02905 6.74753 2.45174 6.72008L7.06144 6.42319C7.06144 6.42319 7.07228 6.42254 7.07789 6.41839C7.07789 6.41839 7.0835 6.41424 7.08593 6.4077L7.09105 6.39435L8.80694 2.07343C8.80694 2.07343 8.94489 1.70285 9.26954 1.47549C9.26954 1.47549 9.59847 1.24512 10.0001 1.24512C10.0001 1.24512 10.4016 1.24512 10.7306 1.47549C10.7306 1.47549 11.0552 1.70285 11.1932 2.07343L12.9091 6.39435L12.9142 6.4077C12.9142 6.4077 12.9166 6.41424 12.9222 6.41839C12.9222 6.41839 12.9278 6.42254 12.9348 6.42295L17.548 6.72006C17.548 6.72006 17.9711 6.74753 18.2885 7.01584C18.2885 7.01584 18.5769 7.25961 18.6909 7.62772C18.6909 7.62772 18.8035 7.99177 18.7077 8.35554C18.7077 8.35554 18.6028 8.75358 18.2822 9.01989L14.7519 11.9644C14.7519 11.9644 14.7377 11.9761 14.7328 11.9911C14.7328 11.9911 14.7279 12.0061 14.7317 12.0214L15.8714 16.5022C15.8714 16.5022 15.9732 16.904 15.8313 17.2834C15.8313 17.2834 15.6992 17.6365 15.3969 17.8655C15.3969 17.8655 15.0904 18.0976 14.7131 18.1235C14.7131 18.1235 14.304 18.1517 13.9479 17.9271L10.0093 15.4264L10.0088 15.4261L10.0084 15.4259ZM14.6147 16.8698L10.6793 14.3711L10.6788 14.3708C10.6788 14.3708 10.3682 14.1734 10.0001 14.1734C10.0001 14.1734 9.63174 14.1734 9.32094 14.3711L5.65786 16.6907C5.65786 16.6907 5.5728 16.7449 5.49156 16.6831C5.49156 16.6831 5.39374 16.6088 5.42591 16.4829L6.48085 12.3256C6.48085 12.3256 6.57227 11.9572 6.45451 11.5999C6.45451 11.5999 6.33674 11.2425 6.04676 11.0027L2.51756 8.05912C2.51756 8.05912 2.49105 8.03709 2.50336 7.99732C2.50336 7.99732 2.51219 7.96879 2.53274 7.96746L7.14179 7.6706C7.14179 7.6706 7.51644 7.64882 7.82127 7.42333C7.82127 7.42333 8.12278 7.20029 8.25504 6.85006L9.97155 2.52757L9.97803 2.51054C9.97803 2.51054 9.98055 2.5036 9.98661 2.49936C9.98661 2.49936 9.99266 2.49512 10.0001 2.49512C10.0001 2.49512 10.0074 2.49512 10.0135 2.49936C10.0135 2.49936 10.0196 2.5036 10.0221 2.51054L10.0286 2.52757L11.7451 6.85005C11.7451 6.85005 11.8773 7.20029 12.1788 7.42333C12.1788 7.42333 12.4837 7.64882 12.8622 7.67084L17.4677 7.96748C17.4677 7.96748 17.4879 7.96879 17.4967 7.99732C17.4967 7.99732 17.5091 8.03709 17.4836 8.05828L13.9513 11.0044C13.9513 11.0044 13.6634 11.2425 13.5456 11.5999C13.5456 11.5999 13.4278 11.9572 13.5184 12.3224L14.66 16.8103C14.66 16.8103 14.6696 16.8483 14.6423 16.869C14.6423 16.869 14.6291 16.8789 14.6147 16.8698Z" fill="white"/>
</g>
</svg>
