<svg width="32" height="32" viewBox="0 0 32 32" fill="none" xmlns="http://www.w3.org/2000/svg">
<g id="SuitcaseSimple-d">
<path id="Vector" d="M28 20V26C28 26.2653 27.8947 26.5195 27.7072 26.7072C27.5195 26.8947 27.2653 27 27 27H5C4.73474 27 4.48047 26.8947 4.29285 26.7072C4.10535 26.5195 4 26.2653 4 26V20" fill="white" fill-opacity="0.1"/>
<path id="Vector_2" fill-rule="evenodd" clip-rule="evenodd" d="M3 10C3 10 3 9.17157 3.58579 8.58579C3.58579 8.58579 4.17157 8 5 8H27C27 8 27.8284 8 28.4142 8.58579C28.4142 8.58579 29 9.17157 29 10V26C29 26 29 26.8284 28.4142 27.4142C28.4142 27.4142 27.8284 28 27 28H5C5 28 4.17157 28 3.58579 27.4142C3.58579 27.4142 3 26.8284 3 26V10ZM5 10V26H27V10H5Z" fill="white"/>
<path id="Vector_3" d="M10.8787 4.87868C10 5.75736 10 7 10 7V9C10 9.55228 10.4477 10 11 10C11.5523 10 12 9.55228 12 9V7C12 6.58579 12.2929 6.29289 12.2929 6.29289C12.5858 6 13 6 13 6H19C19.4142 6 19.7071 6.29289 19.7071 6.29289C20 6.58579 20 7 20 7V9C20 9.55228 20.4477 10 21 10C21.5523 10 22 9.55228 22 9V7C22 5.75736 21.1213 4.87868 21.1213 4.87868C20.2426 4 19 4 19 4H13C11.7574 4 10.8787 4.87868 10.8787 4.87868Z" fill="white"/>
<path id="Vector_4" d="M4 21H28C28.5523 21 29 20.5523 29 20C29 19.4477 28.5523 19 28 19H4C3.44772 19 3 19.4477 3 20C3 20.5523 3.44772 21 4 21Z" fill="white"/>
</g>
</svg>
