<svg width="32" height="32" viewBox="0 0 32 32" fill="none" xmlns="http://www.w3.org/2000/svg">
<g id="UserCircle-d">
<path id="Vector" d="M15.9995 4C13.5715 3.99927 11.2002 4.73511 9.19922 6.1106C7.198 7.48584 5.66138 9.43579 4.79175 11.7031C3.92236 13.9702 3.76099 16.4478 4.32935 18.8083C4.89771 21.1692 6.1687 23.302 7.97461 24.925C8.72705 23.4431 9.87524 22.1987 11.2917 21.3293C12.7083 20.46 14.3376 20 15.9995 20C15.0107 20 14.0439 19.7068 13.2217 19.1575C12.3994 18.6079 11.7585 17.8271 11.3801 16.9133C11.0017 15.9998 10.9028 14.9944 11.0957 14.0247C11.2886 13.0547 11.7649 12.1638 12.4641 11.4644C13.1633 10.7651 14.0542 10.2891 15.0242 10.0962C15.9941 9.90308 16.9995 10.0022 17.9131 10.3806C18.8267 10.759 19.6077 11.3999 20.157 12.2222C20.7063 13.0444 20.9995 14.011 20.9995 15C20.9995 16.3262 20.4729 17.5979 19.5352 18.5356C18.5974 19.4731 17.3257 20 15.9995 20C17.6616 20 19.291 20.46 20.7075 21.3293C22.124 22.1987 23.2722 23.4431 24.0247 24.925C25.8306 23.302 27.1016 21.1692 27.6699 18.8083C28.238 16.4478 28.0769 13.9702 27.2073 11.7031C26.3379 9.43579 24.801 7.48584 22.8 6.1106C20.7991 4.73511 18.4277 3.99927 15.9995 4Z" fill="white" fill-opacity="0.1"/>
<path id="Vector_2" fill-rule="evenodd" clip-rule="evenodd" d="M16 3C16 3 18.6442 3 21.0605 4.02201C21.0605 4.02201 23.3936 5.00884 25.1924 6.80761C25.1924 6.80761 26.9912 8.60638 27.978 10.9395C27.978 10.9395 29 13.3558 29 16C29 16 29 18.6442 27.978 21.0605C27.978 21.0605 26.9912 23.3936 25.1924 25.1924C25.1924 25.1924 23.3936 26.9912 21.0605 27.978C21.0605 27.978 18.6442 29 16 29C16 29 13.3558 29 10.9395 27.978C10.9395 27.978 8.60638 26.9912 6.80761 25.1924C6.80761 25.1924 5.00884 23.3936 4.02202 21.0605C4.02202 21.0605 3 18.6442 3 16C3 16 3 13.3558 4.02202 10.9395C4.02202 10.9395 5.00885 8.60638 6.80761 6.80761C6.80761 6.80761 8.60638 5.00884 10.9395 4.02201C10.9395 4.02201 13.3558 3 16 3ZM16 5C16 5 13.7614 5 11.7186 5.86402C11.7186 5.86402 9.74476 6.69889 8.22183 8.22182C8.22183 8.22182 6.6989 9.74476 5.86402 11.7186C5.86402 11.7186 5 13.7614 5 16C5 16 5 18.2386 5.86402 20.2814C5.86402 20.2814 6.69889 22.2552 8.22183 23.7782C8.22183 23.7782 9.74476 25.3011 11.7186 26.136C11.7186 26.136 13.7614 27 16 27C16 27 18.2386 27 20.2814 26.136C20.2814 26.136 22.2552 25.3011 23.7782 23.7782C23.7782 23.7782 25.3011 22.2552 26.136 20.2814C26.136 20.2814 27 18.2386 27 16C27 16 27 13.7614 26.136 11.7186C26.136 11.7186 25.3011 9.74476 23.7782 8.22183C23.7782 8.22183 22.2552 6.69889 20.2814 5.86402C20.2814 5.86402 18.2386 5 16 5Z" fill="white"/>
<path id="Vector_3" fill-rule="evenodd" clip-rule="evenodd" d="M16 9C16 9 18.4853 9 20.2426 10.7574C20.2426 10.7574 22 12.5147 22 15C22 15 22 17.4853 20.2426 19.2426C20.2426 19.2426 18.4853 21 16 21C16 21 13.5147 21 11.7574 19.2426C11.7574 19.2426 10 17.4853 10 15C10 15 10 12.5147 11.7574 10.7574C11.7574 10.7574 13.5147 9 16 9ZM16 11C16 11 14.3431 11 13.1716 12.1716C13.1716 12.1716 12 13.3431 12 15C12 15 12 16.6569 13.1716 17.8284C13.1716 17.8284 14.3431 19 16 19C16 19 17.6569 19 18.8284 17.8284C18.8284 17.8284 20 16.6569 20 15C20 15 20 13.3431 18.8284 12.1716C18.8284 12.1716 17.6569 11 16 11Z" fill="white"/>
<path id="Vector_4" d="M20.1846 22.1811C22.1101 23.3631 23.1329 25.3777 23.1329 25.3777C23.253 25.6141 23.4621 25.7933 23.7142 25.8756C23.8144 25.9083 23.9192 25.925 24.0246 25.925L24.052 25.9246C24.2 25.9205 24.3453 25.8837 24.4773 25.8166C24.8131 25.6462 25.0246 25.3015 25.0246 24.925C25.0246 24.9107 25.0243 24.8964 25.0237 24.8821C25.0176 24.7394 24.9809 24.5996 24.9163 24.4723L24.9161 24.472L24.9158 24.4713C23.6373 21.9537 21.2308 20.4766 21.2308 20.4766C18.8238 18.9992 15.9996 18.9992 15.9996 18.9992C13.1754 18.9992 10.7684 20.4766 10.7684 20.4766C8.36145 21.954 7.08294 24.4723 7.08294 24.4723C7.01173 24.6126 6.97461 24.7677 6.97461 24.925L6.97464 24.9324C6.97741 25.3063 7.18853 25.6474 7.52192 25.8166C7.66219 25.8879 7.81729 25.925 7.97461 25.925L7.98203 25.9249C8.35591 25.9222 8.69702 25.7111 8.86628 25.3777C9.88908 23.3631 11.8147 22.1811 11.8147 22.1811C13.7402 20.9992 15.9996 20.9992 15.9996 20.9992C18.259 20.9992 20.1846 22.1811 20.1846 22.1811Z" fill="white"/>
</g>
</svg>
