<svg width="24" height="24" viewBox="0 0 24 24" fill="none" xmlns="http://www.w3.org/2000/svg">
<g id="UsersThree-r">
<g id="Vector">
<path fill-rule="evenodd" clip-rule="evenodd" d="M12 8.62501C12 8.62501 13.864 8.62501 15.182 9.94303C15.182 9.94303 16.5 11.261 16.5 13.125C16.5 13.125 16.5 14.989 15.182 16.307C15.182 16.307 13.864 17.625 12 17.625C12 17.625 10.136 17.625 8.81802 16.307C8.81802 16.307 7.5 14.989 7.5 13.125C7.5 13.125 7.5 11.261 8.81802 9.94303C8.81802 9.94303 10.136 8.62501 12 8.62501ZM12 10.125C12 10.125 10.7574 10.125 9.87868 11.0037C9.87868 11.0037 9 11.8824 9 13.125C9 13.125 9 14.3677 9.87868 15.2463C9.87868 15.2463 10.7574 16.125 12 16.125C12 16.125 13.2426 16.125 14.1213 15.2463C14.1213 15.2463 15 14.3677 15 13.125C15 13.125 15 11.8824 14.1213 11.0037C14.1213 11.0037 13.2426 10.125 12 10.125Z" fill="#1C1C1C"/>
<path d="M22.274 13.5737C22.3931 13.733 22.5708 13.8388 22.7677 13.8673C22.8032 13.8724 22.8391 13.875 22.875 13.875L22.8763 13.875C23.0377 13.8747 23.1947 13.8224 23.324 13.7258C23.5135 13.5842 23.625 13.3615 23.625 13.125L23.625 13.1164C23.6232 12.9575 23.5709 12.8033 23.4758 12.676L23.4751 12.6752C22.5736 11.4694 21.227 10.7961 21.227 10.7961C19.8799 10.1225 18.3738 10.125 18.3738 10.125L18.375 10.125C18.7892 10.125 19.125 10.4608 19.125 10.875C19.125 11.2886 18.7902 11.6241 18.3767 11.625L22.274 13.5737Z" fill="#1C1C1C"/>
<path d="M3.44384 12.1377C4.47305 11.6231 5.62375 11.625 5.62375 11.625L5.6248 11.625C5.63639 11.625 5.64819 11.6247 5.65977 11.6242C5.84603 11.6156 6.02238 11.5379 6.15444 11.4062C6.29533 11.2658 6.37467 11.0752 6.375 10.8763L6.375 10.8752C6.375 10.8299 6.37089 10.7844 6.36271 10.7398C6.29751 10.3841 5.98783 10.1256 5.62625 10.125L5.625 10.125C4.11958 10.1228 2.77302 10.7961 2.77302 10.7961C1.42638 11.4694 0.524888 12.6752 0.524888 12.6752L0.524345 12.6759C0.427356 12.8057 0.375 12.9632 0.375 13.125L0.375041 13.1329C0.37539 13.1662 0.377954 13.1994 0.382716 13.2323C0.411176 13.4292 0.516675 13.6067 0.676004 13.7258C0.805645 13.8227 0.963152 13.875 1.125 13.875C1.13503 13.875 1.14505 13.8748 1.15507 13.8744C1.38084 13.8654 1.59049 13.755 1.72575 13.574C2.41463 12.6523 3.44384 12.1377 3.44384 12.1377Z" fill="#1C1C1C"/>
<path d="M14.786 18.4259C16.064 19.2241 16.7254 20.5777 16.7254 20.5777L16.7258 20.5786C16.8516 20.8362 17.1134 21 17.4 21L17.4205 20.9997C17.5276 20.9968 17.6328 20.9709 17.7291 20.9239C17.9866 20.7982 18.15 20.5366 18.15 20.25L18.1497 20.2295C18.1468 20.1224 18.1209 20.0172 18.0739 19.9209C17.2239 18.1804 15.5806 17.1537 15.5806 17.1537C13.9374 16.1274 12 16.1274 12 16.1274C10.0626 16.1274 8.41936 17.1537 8.41936 17.1537C6.77641 18.1798 5.92633 19.9203 5.92633 19.9203C5.87626 20.0229 5.84999 20.1359 5.84999 20.25L5.85005 20.2598C5.85109 20.3395 5.86483 20.4185 5.89074 20.4938C5.95542 20.682 6.09217 20.8367 6.27091 20.9239C6.37339 20.974 6.48594 21 6.59999 21L6.61721 20.9998C6.89756 20.9934 7.1509 20.8311 7.27394 20.5791C7.93538 19.2245 9.21395 18.4259 9.21395 18.4259C10.4925 17.6274 12 17.6274 12 17.6274C13.5074 17.6274 14.786 18.4259 14.786 18.4259Z" fill="#1C1C1C"/>
<path d="M7.26176 6.33438C7.70944 6.81089 7.83204 7.45312 7.83204 7.45312C7.86933 7.6485 7.98272 7.82107 8.14725 7.93285C8.27158 8.01733 8.41842 8.06249 8.56873 8.06249L8.5736 8.06248C8.61916 8.06218 8.6646 8.05773 8.70936 8.04919C9.06296 7.98169 9.31874 7.67248 9.31874 7.31249L9.31872 7.30827C9.31846 7.26249 9.31402 7.21683 9.30543 7.17187C9.10111 6.10149 8.35497 5.3073 8.35497 5.3073C7.60884 4.51312 6.55328 4.24248 6.55328 4.24248C5.49772 3.97185 4.4615 4.30906 4.4615 4.30906C3.42528 4.64627 2.73116 5.48629 2.73116 5.48629C2.03703 6.32632 1.90119 7.40752 1.90119 7.40752C1.76535 8.48872 2.2301 9.47435 2.2301 9.47435C2.69486 10.46 3.61545 11.043 3.61545 11.043C4.53572 11.6259 5.6248 11.625 5.6248 11.625L5.62575 11.625C5.82466 11.6248 6.01534 11.5456 6.15585 11.4048C6.29618 11.2642 6.375 11.0739 6.375 10.8752L6.37498 10.8742C6.37456 10.4603 6.03892 10.125 5.625 10.125L5.62422 10.125C4.9704 10.1257 4.41805 9.77582 4.41805 9.77582C3.86569 9.42598 3.58684 8.83461 3.58684 8.83461C3.30799 8.24323 3.38949 7.59451 3.38949 7.59451C3.471 6.94579 3.88747 6.44177 3.88747 6.44177C4.30395 5.93776 4.92568 5.73543 4.92568 5.73543C5.54741 5.53311 6.18074 5.69549 6.18074 5.69549C6.81408 5.85787 7.26176 6.33438 7.26176 6.33438Z" fill="#1C1C1C"/>
<path d="M19.5819 9.77582C19.0296 10.1257 18.3758 10.125 18.3758 10.125L18.375 10.125C18.3633 10.125 18.3515 10.1253 18.3397 10.1258L17.6258 10.9103C17.6346 11.0965 17.7124 11.2728 17.8441 11.4048C17.9846 11.5456 18.1753 11.6248 18.3742 11.625L18.375 11.625C19.4643 11.6259 20.3845 11.043 20.3845 11.043C21.3051 10.46 21.7699 9.47435 21.7699 9.47435C22.2346 8.48872 22.0988 7.40752 22.0988 7.40752C21.963 6.32632 21.2688 5.48629 21.2688 5.48629C20.5747 4.64627 19.5385 4.30906 19.5385 4.30906C18.5023 3.97185 17.4467 4.24248 17.4467 4.24248C16.3912 4.51312 15.645 5.3073 15.645 5.3073C14.8989 6.10149 14.6946 7.17187 14.6946 7.17187C14.6857 7.21822 14.6813 7.2653 14.6813 7.31249C14.6813 7.33503 14.6823 7.35756 14.6843 7.38C14.7144 7.71338 14.9618 7.98643 15.2906 8.04919C15.337 8.05804 15.3841 8.06249 15.4313 8.06249C15.4538 8.06249 15.4763 8.06147 15.4988 8.05945C15.8321 8.02931 16.1052 7.78191 16.168 7.45312C16.2906 6.81089 16.7382 6.33438 16.7382 6.33438C17.1859 5.85787 17.8193 5.69549 17.8193 5.69549C18.4526 5.53311 19.0743 5.73543 19.0743 5.73543C19.696 5.93776 20.1125 6.44177 20.1125 6.44177C20.529 6.94579 20.6105 7.59451 20.6105 7.59451C20.692 8.24323 20.4132 8.83461 20.4132 8.83461C20.1343 9.42598 19.5819 9.77582 19.5819 9.77582Z" fill="#1C1C1C"/>
</g>
</g>
</svg>
