<svg width="24" height="24" viewBox="0 0 24 24" fill="none" xmlns="http://www.w3.org/2000/svg">
<g id="MagnifyingGlassPlus-r">
<g id="Vector">
<path d="M7.875 11.625H13.875C14.2892 11.625 14.625 11.2892 14.625 10.875C14.625 10.4608 14.2892 10.125 13.875 10.125H7.875C7.46079 10.125 7.125 10.4608 7.125 10.875C7.125 11.2892 7.46079 11.625 7.875 11.625Z" fill="#1C1C1C"/>
<path d="M10.125 7.875V13.875C10.125 14.2892 10.4608 14.625 10.875 14.625C11.2892 14.625 11.625 14.2892 11.625 13.875V7.875C11.625 7.46079 11.2892 7.125 10.875 7.125C10.4608 7.125 10.125 7.46079 10.125 7.875Z" fill="#1C1C1C"/>
<path fill-rule="evenodd" clip-rule="evenodd" d="M10.875 2.25C10.875 2.25 12.6293 2.25 14.2325 2.9281C14.2325 2.9281 15.7804 3.58283 16.9738 4.7762C16.9738 4.7762 18.1672 5.96957 18.8219 7.51753C18.8219 7.51753 19.5 9.12075 19.5 10.875C19.5 10.875 19.5 12.6293 18.8219 14.2325C18.8219 14.2325 18.1672 15.7804 16.9738 16.9738C16.9738 16.9738 15.7804 18.1672 14.2325 18.8219C14.2325 18.8219 12.6293 19.5 10.875 19.5C10.875 19.5 9.12075 19.5 7.51753 18.8219C7.51753 18.8219 5.96958 18.1672 4.7762 16.9738C4.7762 16.9738 3.58283 15.7804 2.9281 14.2325C2.9281 14.2325 2.25 12.6293 2.25 10.875C2.25 10.875 2.25 9.12075 2.9281 7.51753C2.9281 7.51753 3.58283 5.96958 4.7762 4.7762C4.7762 4.7762 5.96957 3.58283 7.51753 2.9281C7.51753 2.9281 9.12075 2.25 10.875 2.25ZM10.875 3.75C10.875 3.75 9.42493 3.75 8.10186 4.30961C8.10186 4.30961 6.82336 4.85037 5.83686 5.83686C5.83686 5.83686 4.85037 6.82336 4.30961 8.10186C4.30961 8.10186 3.75 9.42493 3.75 10.875C3.75 10.875 3.75 12.3251 4.30961 13.6481C4.30961 13.6481 4.85037 14.9266 5.83686 15.9131C5.83686 15.9131 6.82336 16.8996 8.10186 17.4404C8.10186 17.4404 9.42493 18 10.875 18C10.875 18 12.3251 18 13.6481 17.4404C13.6481 17.4404 14.9266 16.8996 15.9131 15.9131C15.9131 15.9131 16.8996 14.9266 17.4404 13.6481C17.4404 13.6481 18 12.3251 18 10.875C18 10.875 18 9.42493 17.4404 8.10186C17.4404 8.10186 16.8996 6.82336 15.9131 5.83686C15.9131 5.83686 14.9266 4.85037 13.6481 4.30961C13.6481 4.30961 12.3251 3.75 10.875 3.75Z" fill="#1C1C1C"/>
<path d="M20.4693 21.53C20.61 21.6706 20.8011 21.75 21 21.75C21.199 21.75 21.3897 21.671 21.5304 21.5304C21.671 21.3897 21.75 21.199 21.75 21C21.75 20.8011 21.671 20.6104 21.5304 20.4697L16.9742 15.9135C16.8335 15.7728 16.6427 15.6938 16.4438 15.6938C16.2449 15.6938 16.0538 15.7725 15.9131 15.9131C15.7725 16.0538 15.6938 16.2449 15.6938 16.4438C15.6938 16.6427 15.7728 16.8335 15.9135 16.9741L20.4693 21.53Z" fill="#1C1C1C"/>
</g>
</g>
</svg>
